<?xml version="1.0" encoding="UTF-8"?>
<svg xmlns="http://www.w3.org/2000/svg" viewBox="66.54 67.47 172.85 56.66">
  <path fill="rgb(65.899658%, 56.898499%, 32.499695%)" fill-opacity="1" d="M 73.695312 112.898438 L 71.921875 117.945312 L 75.46875 117.945312 Z M 78.835938 121.921875 L 76.855469 121.921875 L 76.074219 119.671875 L 71.316406 119.671875 L 70.53125 121.921875 L 68.535156 121.921875 L 72.59375 110.742188 L 74.796875 110.742188 Z M 78.835938 121.921875 "/>
  <path fill="rgb(65.899658%, 56.898499%, 32.499695%)" fill-opacity="1" d="M 89.773438 110.742188 L 89.773438 120.164062 L 94.324219 120.164062 L 94.324219 121.921875 L 87.9375 121.921875 L 87.9375 110.742188 Z M 89.773438 110.742188 "/>
  <path fill="rgb(65.899658%, 56.898499%, 32.499695%)" fill-opacity="1" d="M 108.15625 116.140625 L 113.742188 116.140625 L 113.742188 116.910156 C 113.742188 118.441406 113.238281 119.695312 112.226562 120.675781 C 111.226562 121.644531 109.90625 122.128906 108.265625 122.128906 C 106.542969 122.128906 105.117188 121.570312 103.988281 120.453125 C 102.867188 119.335938 102.308594 117.960938 102.308594 116.332031 C 102.308594 114.714844 102.867188 113.347656 103.988281 112.230469 C 105.117188 111.101562 106.507812 110.535156 108.171875 110.535156 C 109.203125 110.535156 110.152344 110.773438 111.019531 111.246094 C 111.886719 111.722656 112.5625 112.367188 113.039062 113.1875 L 111.460938 114.097656 C 111.160156 113.554688 110.71875 113.125 110.132812 112.804688 C 109.546875 112.484375 108.894531 112.324219 108.171875 112.324219 C 107 112.324219 106.035156 112.707031 105.28125 113.472656 C 104.523438 114.25 104.144531 115.210938 104.144531 116.347656 C 104.144531 117.5 104.523438 118.453125 105.28125 119.207031 C 106.054688 119.964844 107.058594 120.339844 108.28125 120.339844 C 109.261719 120.339844 110.066406 120.113281 110.695312 119.65625 C 111.320312 119.195312 111.71875 118.574219 111.890625 117.785156 L 108.15625 117.785156 Z M 108.15625 116.140625 "/>
  <path fill="rgb(65.899658%, 56.898499%, 32.499695%)" fill-opacity="1" d="M 125.734375 119.207031 C 126.511719 119.964844 127.453125 120.339844 128.5625 120.339844 C 129.679688 120.339844 130.617188 119.964844 131.375 119.207031 C 132.140625 118.441406 132.523438 117.480469 132.523438 116.332031 C 132.523438 115.183594 132.140625 114.230469 131.375 113.476562 C 130.617188 112.707031 129.679688 112.324219 128.5625 112.324219 C 127.445312 112.324219 126.503906 112.707031 125.734375 113.476562 C 124.980469 114.230469 124.601562 115.183594 124.601562 116.332031 C 124.601562 117.472656 124.980469 118.429688 125.734375 119.207031 M 132.667969 120.453125 C 131.546875 121.570312 130.179688 122.128906 128.5625 122.128906 C 126.945312 122.128906 125.570312 121.570312 124.441406 120.453125 C 123.324219 119.324219 122.765625 117.949219 122.765625 116.332031 C 122.765625 114.714844 123.324219 113.347656 124.441406 112.230469 C 125.570312 111.101562 126.945312 110.535156 128.5625 110.535156 C 130.179688 110.535156 131.546875 111.101562 132.667969 112.230469 C 133.792969 113.347656 134.359375 114.714844 134.359375 116.332031 C 134.359375 117.949219 133.792969 119.324219 132.667969 120.453125 "/>
  <path fill="rgb(65.899658%, 56.898499%, 32.499695%)" fill-opacity="1" d="M 147.246094 122.128906 C 146.171875 122.128906 145.257812 121.886719 144.507812 121.402344 C 143.757812 120.917969 143.234375 120.246094 142.933594 119.382812 L 144.515625 118.457031 C 144.960938 119.714844 145.890625 120.339844 147.292969 120.339844 C 147.976562 120.339844 148.492188 120.207031 148.84375 119.941406 C 149.195312 119.675781 149.371094 119.320312 149.371094 118.871094 C 149.371094 118.425781 149.183594 118.078125 148.8125 117.832031 C 148.4375 117.589844 147.777344 117.324219 146.832031 117.035156 C 145.863281 116.746094 145.078125 116.40625 144.484375 116.011719 C 143.757812 115.503906 143.398438 114.75 143.398438 113.761719 C 143.398438 112.773438 143.75 111.988281 144.453125 111.414062 C 145.144531 110.828125 145.988281 110.535156 146.992188 110.535156 C 147.875 110.535156 148.652344 110.753906 149.332031 111.183594 C 150.003906 111.613281 150.523438 112.21875 150.886719 112.996094 L 149.339844 113.890625 C 148.867188 112.847656 148.085938 112.324219 146.992188 112.324219 C 146.457031 112.324219 146.03125 112.449219 145.714844 112.699219 C 145.394531 112.949219 145.234375 113.289062 145.234375 113.714844 C 145.234375 114.128906 145.394531 114.457031 145.714844 114.695312 C 146.03125 114.933594 146.625 115.1875 147.484375 115.457031 C 148.019531 115.636719 148.328125 115.742188 148.410156 115.773438 C 148.550781 115.816406 148.828125 115.921875 149.242188 116.09375 C 149.582031 116.230469 149.855469 116.378906 150.058594 116.539062 C 150.886719 117.191406 151.269531 117.957031 151.207031 118.839844 C 151.207031 119.851562 150.839844 120.65625 150.105469 121.25 C 149.390625 121.835938 148.4375 122.128906 147.246094 122.128906 "/>
  <path fill="rgb(65.899658%, 56.898499%, 32.499695%)" fill-opacity="1" d="M 162.449219 116.367188 L 164.730469 116.367188 C 165.273438 116.367188 165.722656 116.179688 166.074219 115.8125 C 166.425781 115.445312 166.601562 114.980469 166.601562 114.417969 C 166.601562 113.851562 166.425781 113.386719 166.074219 113.019531 C 165.722656 112.652344 165.273438 112.46875 164.730469 112.46875 L 162.449219 112.46875 Z M 160.613281 110.742188 L 164.730469 110.742188 C 165.785156 110.742188 166.664062 111.09375 167.367188 111.796875 C 168.078125 112.5 168.4375 113.375 168.4375 114.417969 C 168.4375 115.449219 168.078125 116.324219 167.367188 117.035156 C 166.664062 117.738281 165.785156 118.089844 164.730469 118.089844 L 162.449219 118.089844 L 162.449219 121.921875 L 160.613281 121.921875 Z M 160.613281 110.742188 "/>
  <path fill="rgb(65.899658%, 56.898499%, 32.499695%)" fill-opacity="1" d="M 184.566406 115.328125 L 184.566406 110.742188 L 186.402344 110.742188 L 186.402344 121.921875 L 184.566406 121.921875 L 184.566406 117.082031 L 179.773438 117.082031 L 179.773438 121.921875 L 177.9375 121.921875 L 177.9375 110.742188 L 179.773438 110.742188 L 179.773438 115.328125 Z M 184.566406 115.328125 "/>
  <path fill="rgb(65.899658%, 56.898499%, 32.499695%)" fill-opacity="1" d="M 198.378906 117.148438 L 198.378906 120.164062 L 203.328125 120.164062 L 203.328125 121.921875 L 196.539062 121.921875 L 196.539062 110.742188 L 203.246094 110.742188 L 203.246094 112.5 L 198.378906 112.5 L 198.378906 115.40625 L 202.847656 115.40625 L 202.847656 117.148438 Z M 198.378906 117.148438 "/>
  <path fill="rgb(65.899658%, 56.898499%, 32.499695%)" fill-opacity="1" d="M 217.378906 112.46875 L 214.746094 112.46875 L 214.746094 116.207031 L 217.378906 116.207031 C 217.867188 116.207031 218.285156 116.023438 218.625 115.664062 C 218.964844 115.300781 219.136719 114.859375 219.136719 114.335938 C 219.136719 113.816406 218.964844 113.371094 218.625 113.011719 C 218.285156 112.648438 217.867188 112.46875 217.378906 112.46875 M 221.292969 121.921875 L 219.28125 121.921875 L 216.917969 117.851562 L 214.746094 117.851562 L 214.746094 121.921875 L 212.910156 121.921875 L 212.910156 110.742188 L 217.378906 110.742188 C 218.378906 110.742188 219.226562 111.09375 219.917969 111.796875 C 220.621094 112.480469 220.972656 113.324219 220.972656 114.335938 C 220.972656 115.050781 220.769531 115.703125 220.359375 116.292969 C 219.949219 116.882812 219.414062 117.3125 218.753906 117.578125 Z M 221.292969 121.921875 "/>
  <path fill="rgb(65.899658%, 56.898499%, 32.499695%)" fill-opacity="1" d="M 232.4375 117.148438 L 232.4375 120.164062 L 237.386719 120.164062 L 237.386719 121.921875 L 230.601562 121.921875 L 230.601562 110.742188 L 237.308594 110.742188 L 237.308594 112.5 L 232.4375 112.5 L 232.4375 115.40625 L 236.910156 115.40625 L 236.910156 117.148438 Z M 232.4375 117.148438 "/>
  <path fill="rgb(65.899658%, 56.898499%, 32.499695%)" fill-opacity="1" d="M 130.511719 90.796875 L 145.429688 90.796875 C 146.351562 90.796875 147.101562 90.046875 147.101562 89.125 L 128.839844 89.125 C 128.839844 90.046875 129.589844 90.796875 130.511719 90.796875 "/>
  <path fill="rgb(65.899658%, 56.898499%, 32.499695%)" fill-opacity="1" d="M 132.875 86.863281 L 147.789062 86.863281 C 148.714844 86.863281 149.464844 86.113281 149.464844 85.191406 L 131.203125 85.191406 C 131.203125 86.113281 131.953125 86.863281 132.875 86.863281 "/>
  <path fill="rgb(65.899658%, 56.898499%, 32.499695%)" fill-opacity="1" d="M 135.21875 82.929688 L 150.132812 82.929688 C 151.058594 82.929688 151.808594 82.183594 151.808594 81.257812 L 133.542969 81.257812 C 133.542969 82.183594 134.292969 82.929688 135.21875 82.929688 "/>
  <path fill="rgb(65.899658%, 56.898499%, 32.499695%)" fill-opacity="1" d="M 139.960938 75.066406 L 150.34375 75.066406 C 150.359375 75.066406 150.371094 75.074219 150.390625 75.074219 L 166.914062 75.074219 C 167.394531 75.074219 167.78125 74.683594 167.78125 74.203125 L 156.328125 74.203125 C 156.464844 73.960938 156.550781 73.6875 156.550781 73.390625 L 138.289062 73.390625 C 138.289062 74.316406 139.035156 75.066406 139.960938 75.066406 "/>
  <path fill="rgb(65.899658%, 56.898499%, 32.499695%)" fill-opacity="1" d="M 142.347656 71.144531 L 147.902344 71.144531 C 147.925781 71.148438 147.945312 71.160156 147.972656 71.160156 L 164.496094 71.160156 C 164.976562 71.160156 165.363281 70.769531 165.363281 70.289062 L 158.710938 70.289062 C 158.847656 70.046875 158.933594 69.769531 158.933594 69.472656 L 140.671875 69.472656 C 140.671875 70.394531 141.421875 71.144531 142.347656 71.144531 "/>
  <path fill="rgb(65.899658%, 56.898499%, 32.499695%)" fill-opacity="1" d="M 159.023438 89.929688 C 159.023438 90.410156 159.414062 90.796875 159.890625 90.796875 L 176.414062 90.796875 C 176.894531 90.796875 177.285156 90.410156 177.285156 89.929688 Z M 159.023438 89.929688 "/>
  <path fill="rgb(65.899658%, 56.898499%, 32.499695%)" fill-opacity="1" d="M 174.96875 85.996094 L 156.707031 85.996094 C 156.707031 86.476562 157.097656 86.863281 157.578125 86.863281 L 174.101562 86.863281 C 174.582031 86.863281 174.96875 86.476562 174.96875 85.996094 "/>
  <path fill="rgb(65.899658%, 56.898499%, 32.499695%)" fill-opacity="1" d="M 172.570312 82.0625 L 154.308594 82.0625 C 154.308594 82.542969 154.699219 82.929688 155.179688 82.929688 L 171.703125 82.929688 C 172.179688 82.929688 172.570312 82.542969 172.570312 82.0625 "/>
  <path fill="rgb(65.899658%, 56.898499%, 32.499695%)" fill-opacity="1" d="M 169.265625 79.007812 C 169.746094 79.007812 170.132812 78.617188 170.132812 78.136719 L 153.988281 78.136719 C 154.121094 77.894531 154.207031 77.621094 154.207031 77.324219 L 135.945312 77.324219 C 135.945312 78.25 136.691406 79 137.617188 79 Z M 169.265625 79.007812 "/>
</svg>
