<?xml version="1.0" encoding="UTF-8"?>
<svg xmlns="http://www.w3.org/2000/svg" viewBox="126.84 67.47 52.45 25.32">
  <path fill="rgb(65.899658%, 56.898499%, 32.499695%)" fill-opacity="1" d="M 130.511719 90.796875 L 145.429688 90.796875 C 146.351562 90.796875 147.101562 90.046875 147.101562 89.125 L 128.839844 89.125 C 128.839844 90.046875 129.589844 90.796875 130.511719 90.796875 "/>
  <path fill="rgb(65.899658%, 56.898499%, 32.499695%)" fill-opacity="1" d="M 132.875 86.863281 L 147.789062 86.863281 C 148.714844 86.863281 149.464844 86.113281 149.464844 85.191406 L 131.203125 85.191406 C 131.203125 86.113281 131.953125 86.863281 132.875 86.863281 "/>
  <path fill="rgb(65.899658%, 56.898499%, 32.499695%)" fill-opacity="1" d="M 135.21875 82.929688 L 150.132812 82.929688 C 151.058594 82.929688 151.808594 82.183594 151.808594 81.257812 L 133.542969 81.257812 C 133.542969 82.183594 134.292969 82.929688 135.21875 82.929688 "/>
  <path fill="rgb(65.899658%, 56.898499%, 32.499695%)" fill-opacity="1" d="M 139.960938 75.066406 L 150.34375 75.066406 C 150.359375 75.066406 150.371094 75.074219 150.390625 75.074219 L 166.914062 75.074219 C 167.394531 75.074219 167.78125 74.683594 167.78125 74.203125 L 156.328125 74.203125 C 156.464844 73.960938 156.550781 73.6875 156.550781 73.390625 L 138.289062 73.390625 C 138.289062 74.316406 139.035156 75.066406 139.960938 75.066406 "/>
  <path fill="rgb(65.899658%, 56.898499%, 32.499695%)" fill-opacity="1" d="M 142.347656 71.144531 L 147.902344 71.144531 C 147.925781 71.148438 147.945312 71.160156 147.972656 71.160156 L 164.496094 71.160156 C 164.976562 71.160156 165.363281 70.769531 165.363281 70.289062 L 158.710938 70.289062 C 158.847656 70.046875 158.933594 69.769531 158.933594 69.472656 L 140.671875 69.472656 C 140.671875 70.394531 141.421875 71.144531 142.347656 71.144531 "/>
  <path fill="rgb(65.899658%, 56.898499%, 32.499695%)" fill-opacity="1" d="M 159.023438 89.929688 C 159.023438 90.410156 159.414062 90.796875 159.890625 90.796875 L 176.414062 90.796875 C 176.894531 90.796875 177.285156 90.410156 177.285156 89.929688 Z M 159.023438 89.929688 "/>
  <path fill="rgb(65.899658%, 56.898499%, 32.499695%)" fill-opacity="1" d="M 174.96875 85.996094 L 156.707031 85.996094 C 156.707031 86.476562 157.097656 86.863281 157.578125 86.863281 L 174.101562 86.863281 C 174.582031 86.863281 174.96875 86.476562 174.96875 85.996094 "/>
  <path fill="rgb(65.899658%, 56.898499%, 32.499695%)" fill-opacity="1" d="M 172.570312 82.0625 L 154.308594 82.0625 C 154.308594 82.542969 154.699219 82.929688 155.179688 82.929688 L 171.703125 82.929688 C 172.179688 82.929688 172.570312 82.542969 172.570312 82.0625 "/>
  <path fill="rgb(65.899658%, 56.898499%, 32.499695%)" fill-opacity="1" d="M 169.265625 79.007812 C 169.746094 79.007812 170.132812 78.617188 170.132812 78.136719 L 153.988281 78.136719 C 154.121094 77.894531 154.207031 77.621094 154.207031 77.324219 L 135.945312 77.324219 C 135.945312 78.25 136.691406 79 137.617188 79 Z M 169.265625 79.007812 "/>
</svg>
